<?xml version="1.0" encoding="utf-8"?>
<!-- Generator: Adobe Illustrator 17.0.0, SVG Export Plug-In . SVG Version: 6.00 Build 0)  -->
<!DOCTYPE svg PUBLIC "-//W3C//DTD SVG 1.1//EN" "http://www.w3.org/Graphics/SVG/1.1/DTD/svg11.dtd">
<svg version="1.1" id="Layer_1" xmlns="http://www.w3.org/2000/svg" xmlns:xlink="http://www.w3.org/1999/xlink" x="0px" y="0px"
	 width="157.625px" height="157.625px" viewBox="0 0 157.625 157.625" enable-background="new 0 0 157.625 157.625"
	 xml:space="preserve">
<circle fill="#FFFFFF" cx="79.574" cy="78.051" r="61.349"/>
<g>
	<path fill="#FFFFFF" d="M79.574,13.415c35.697,0,64.636,28.939,64.636,64.636c0,35.697-28.939,64.636-64.636,64.636
		c-35.698,0-64.636-28.939-64.636-64.636C14.938,42.354,43.876,13.415,79.574,13.415 M79.574,3.415
		c-41.154,0-74.636,33.482-74.636,74.636c0,41.154,33.482,74.636,74.636,74.636s74.636-33.482,74.636-74.636
		C154.21,36.897,120.728,3.415,79.574,3.415L79.574,3.415z"/>
</g>
<radialGradient id="SVGID_1_" cx="79.5738" cy="78.0512" r="42.6511" fx="79.8658" fy="81.8949" gradientUnits="userSpaceOnUse">
	<stop  offset="0.7959" style="stop-color:#7559A6"/>
	<stop  offset="0.8812" style="stop-color:#7256A4"/>
	<stop  offset="0.9342" style="stop-color:#6A4E9E"/>
	<stop  offset="0.9782" style="stop-color:#5B3F94"/>
	<stop  offset="1" style="stop-color:#51358C"/>
</radialGradient>
<circle fill="url(#SVGID_1_)" cx="79.574" cy="78.051" r="42.651"/>
<radialGradient id="SVGID_2_" cx="79.5738" cy="78.0512" r="30.639" gradientUnits="userSpaceOnUse">
	<stop  offset="0.7959" style="stop-color:#5B4381"/>
	<stop  offset="0.9126" style="stop-color:#594083"/>
	<stop  offset="0.9848" style="stop-color:#53388A"/>
	<stop  offset="1" style="stop-color:#51358C"/>
</radialGradient>
<circle fill="url(#SVGID_2_)" cx="79.574" cy="78.051" r="30.639"/>
<radialGradient id="SVGID_3_" cx="79.5738" cy="78.0512" r="18.6514" gradientUnits="userSpaceOnUse">
	<stop  offset="0.7959" style="stop-color:#442E60"/>
	<stop  offset="0.9099" style="stop-color:#432C63"/>
	<stop  offset="0.9806" style="stop-color:#41276B"/>
	<stop  offset="1" style="stop-color:#40246F"/>
</radialGradient>
<circle fill="url(#SVGID_3_)" cx="79.574" cy="78.051" r="18.651"/>
<path opacity="0.1" fill="#F5F5F5" d="M109.733,47.892c-16.656-16.656-43.661-16.656-60.318,0s-16.656,43.661,0,60.318
	L109.733,47.892z"/>
</svg>
