<?xml version="1.0" encoding="utf-8"?>
<!-- Generator: Adobe Illustrator 17.0.0, SVG Export Plug-In . SVG Version: 6.00 Build 0)  -->
<!DOCTYPE svg PUBLIC "-//W3C//DTD SVG 1.1//EN" "http://www.w3.org/Graphics/SVG/1.1/DTD/svg11.dtd">
<svg version="1.1" id="Layer_1" xmlns="http://www.w3.org/2000/svg" xmlns:xlink="http://www.w3.org/1999/xlink" x="0px" y="0px"
	 width="455.227px" height="178.173px" viewBox="0 0 455.227 178.173" enable-background="new 0 0 455.227 178.173"
	 xml:space="preserve">
<g>
	<g>
		<g>
			<path fill-rule="evenodd" clip-rule="evenodd" fill="#FFFFFF" d="M96.838,0.017c-0.271,0-65.288,0.017-65.53,0.017
				c-3.622,0-6.383,1.524-8.02,5.016C21.482,8.917,4.632,43.471,0.376,54.079c-1.172,3.07,0.21,9.281,6.839,9.281h16.746
				c4.672,0,7.327,4.767,7.327,9.385c0.005,21.164,0,77.079,0,98.307c0,4.686,2.222,7.099,6.804,7.099h58.821
				c4.758,0,7.012-2.262,7.012-7.029c0.087-29.897,0.026-134.321,0-164.079C103.925,2.436,101.446,0.017,96.838,0.017z
				 M225.831,76.455c0,0-1.625,0.947-2.291,0.947c-0.713,0-2.395-1.16-2.395-1.16L118.042,4.779v75.37l103.103,68.047
				c0,0,1.171,0.739,2.343,0.739c1.244,0,2.343-0.739,2.343-0.739l103.103-68.433V4.779L225.831,76.455z"/>
		</g>
	</g>
	<path fill-rule="evenodd" clip-rule="evenodd" fill="#FFFFFF" d="M455.074,6.891c0.811-2.782-1.657-6.799-6.051-6.799
		C448.803,0.092,350.776,0,350.064,0c-4.608,0-7.13,2.366-7.058,7.064v164.01c0,4.606,2.297,7.099,6.983,7.099
		c1.68,0,55.361-0.07,58.674-0.07c4.727,0,7.061-2.343,7.061-7.029l-0.04-98.151c0-4.612,1.076-9.558,5.809-9.558h7.102
		c3.333,0,5.477-1.587,6.981-4.409C436.89,56.469,454.445,9.575,455.074,6.891z"/>
</g>
</svg>
