<?xml version="1.0" encoding="utf-8"?>
<!-- Generator: Adobe Illustrator 17.0.0, SVG Export Plug-In . SVG Version: 6.00 Build 0)  -->
<!DOCTYPE svg PUBLIC "-//W3C//DTD SVG 1.1//EN" "http://www.w3.org/Graphics/SVG/1.1/DTD/svg11.dtd">
<svg version="1.1" id="Layer_1" xmlns="http://www.w3.org/2000/svg" xmlns:xlink="http://www.w3.org/1999/xlink" x="0px" y="0px"
	 width="25px" height="25px" viewBox="0 0 25 25" enable-background="new 0 0 25 25" xml:space="preserve">
<linearGradient id="SVGID_1_" gradientUnits="userSpaceOnUse" x1="0.8333" y1="17.578" x2="24.3388" y2="17.578">
	<stop  offset="0" style="stop-color:#7559A6"/>
	<stop  offset="1" style="stop-color:#7559A6;stop-opacity:0"/>
</linearGradient>
<path fill="url(#SVGID_1_)" d="M12.5,25c4.191,0,7.9-2.063,10.168-5.228c1.415-1.975,0.08-0.664-0.342-0.242
	c-1.958,1.962-4.614,3.215-7.603,3.215c-4.697,0-9.233-3.713-9.233-9.245c0-1.746-0.693-3.344-2.724-3.344
	C1.281,10.156,0,11.206,0,12.5C0,19.939,5.596,25,12.5,25z"/>
<linearGradient id="SVGID_2_" gradientUnits="userSpaceOnUse" x1="0.3286" y1="18.7401" x2="23.8357" y2="18.7401" gradientTransform="matrix(-0.9999 0.0133 -0.0133 -0.9999 24.6759 25.9579)">
	<stop  offset="0" style="stop-color:#7559A6"/>
	<stop  offset="1" style="stop-color:#7559A6;stop-opacity:0"/>
</linearGradient>
<path fill="url(#SVGID_2_)" d="M12.332-0.042C8.141,0.014,4.46,2.126,2.234,5.321C0.846,7.314,2.163,5.986,2.579,5.558
	c1.932-1.988,4.571-3.276,7.56-3.316c4.697-0.063,9.281,3.59,9.355,9.121c0.023,1.746,0.738,3.334,2.768,3.307
	c1.485-0.02,2.81-0.917,2.735-2.381C24.627,5.086,19.235-0.134,12.332-0.042z"/>
</svg>
